Coordinates
version=1
nRows=65
nColumns=12
inDegrees=yes

Units are S.I. units (second, meters, Newtons, ...)
Angles are in degrees

endheader
time	SC_y	SC_z	SC_x	AC_y	AC_z	AC_x	GH_y	GH_z	GH_yy	EL_x	PS_y
       0.0              -16.03          24.36          75.76          54.69          9.933          9.267          123.6          4.911         -6.478          6.401          10.04
   0.03087              -16.04          24.36          75.75          54.68          9.933          9.263          123.6          4.921         -6.488          6.408          10.04
   0.06174              -16.04          24.35          75.74          54.68          9.932          9.259          123.6          4.932           -6.5          6.415          10.05
   0.09261              -16.05          24.35          75.72          54.68          9.931          9.255          123.6          4.944         -6.511          6.423          10.05
    0.1235              -16.06          24.35          75.71          54.67          9.931          9.251          123.6          4.956         -6.524          6.431          10.06
    0.1543              -16.07          24.34           75.7          54.67           9.93          9.247          123.6           4.97         -6.538           6.44          10.07
    0.1852              -16.07          24.34          75.68          54.66          9.929          9.242          123.6          4.984         -6.552          6.449          10.08
    0.2161              -16.08          24.34          75.67          54.66          9.928          9.237          123.6          4.999         -6.567          6.459          10.08
     0.247              -16.09          24.33          75.65          54.65          9.927          9.231          123.6          5.015         -6.584           6.47          10.09
    0.2778               -16.1          24.33          75.64          54.65          9.926          9.225          123.6          5.033         -6.602          6.481           10.1
    0.3087              -16.11          24.32          75.62          54.64          9.925          9.219          123.6          5.051         -6.621          6.494          10.11
    0.3396              -16.13          24.32           75.6          54.64          9.924          9.212          123.6          5.072         -6.641          6.507          10.12
    0.3704              -16.14          24.31          75.58          54.63          9.922          9.204          123.6          5.093         -6.663          6.521          10.14
    0.4013              -16.15           24.3          75.55          54.62          9.921          9.196          123.6          5.117         -6.687          6.536          10.15
    0.4322              -16.17           24.3          75.53          54.61          9.919          9.187          123.6          5.142         -6.713          6.553          10.16
     0.463              -16.18          24.29           75.5          54.61          9.918          9.178          123.6           5.17         -6.741          6.571          10.18
    0.4939               -16.2          24.28          75.47           54.6          9.916          9.168          123.6          5.199         -6.771          6.591          10.19
    0.5248              -16.22          24.27          75.44          54.59          9.914          9.157          123.6          5.232         -6.804          6.612          10.21
    0.5557              -16.24          24.27           75.4          54.58          9.912          9.144          123.6          5.268          -6.84          6.636          10.23
    0.5865              -16.26          24.25          75.36          54.56          9.909          9.131          123.6          5.306          -6.88          6.661          10.25
    0.6174              -16.29          24.24          75.32          54.55          9.907          9.116          123.6          5.349         -6.923          6.689          10.28
    0.6483              -16.32          24.23          75.27          54.54          9.904            9.1          123.6          5.396         -6.971           6.72           10.3
    0.6791              -16.35          24.22          75.22          54.52          9.901          9.082          123.6          5.448         -7.024          6.755          10.33
      0.71              -16.38           24.2          75.17           54.5          9.897          9.062          123.6          5.506         -7.082          6.793          10.36
    0.7409              -16.42          24.19           75.1          54.48          9.893          9.041          123.6           5.57         -7.147          6.835           10.4
    0.7717              -16.46          24.17          75.03          54.46          9.889          9.016          123.7          5.641          -7.22          6.882          10.44
    0.8026              -16.51          24.15          74.95          54.44          9.884          8.989          123.7          5.721         -7.301          6.934          10.48
    0.8335              -16.56          24.12          74.86          54.41          9.878          8.958          123.7          5.811         -7.392          6.994          10.53
    0.8644              -16.62          24.09          74.76          54.38          9.872          8.923          123.7          5.913         -7.496           7.06          10.59
    0.8952              -16.69          24.06          74.65          54.34          9.865          8.883          123.7          6.028         -7.613          7.136          10.65
    0.9261              -16.76          24.03          74.52           54.3          9.857          8.838          123.7           6.16         -7.747          7.223          10.72
     0.957              -16.85          23.99          74.37          54.26          9.848          8.786          123.7          6.311         -7.901          7.323          10.81
    0.9878              -16.95          23.94          74.19           54.2          9.837          8.726          123.7          6.486         -8.078          7.438           10.9
     1.019              -17.07          23.89          73.99          54.14          9.825          8.656          123.8          6.689         -8.284          7.571          11.02
      1.05              -17.21          23.83          73.76          54.07           9.81          8.575          123.8          6.926         -8.525          7.727          11.15
      1.08              -17.37          23.75          73.48          53.98          9.793          8.479          123.8          7.206          -8.81          7.912           11.3
     1.111              -17.57          23.67          73.15          53.88          9.773          8.364          123.8          7.539         -9.148           8.13          11.48
     1.142               -17.8          23.56          72.75          53.76          9.749          8.227          123.9          7.937         -9.553          8.393           11.7
     1.173              -18.08          23.43          72.27          53.61          9.719          8.062          123.9          8.419         -10.04           8.71          11.97
     1.204              -18.43          23.28          71.69          53.43          9.684          7.859          124.0          9.009         -10.64          9.098          12.29
     1.235              -18.85          23.09          70.97           53.2          9.639           7.61          124.1          9.736         -11.38          9.576           12.7
     1.266              -19.39          22.85          70.07          52.93          9.584          7.298          124.2          10.64          -12.3          10.17           13.2
     1.297              -20.05          22.54          68.93          52.58          9.514          6.906          124.3          11.78         -13.46          10.92          13.82
     1.327               -20.9          22.16          67.49          52.13          9.426          6.407          124.4          13.24         -14.94          11.88          14.63
     1.358              -21.99          21.67          65.64          51.56          9.313          5.769          124.6           15.1         -16.83           13.1          15.65
     1.389              -23.39          21.04          63.28          50.83          9.167           4.95          124.9          17.48         -19.25          14.67          16.96
      1.42              -25.17          20.24          60.25          49.89          8.981          3.903          125.2          20.53         -22.34          16.68          18.64
     1.451              -27.41          19.23          56.45          48.72          8.748          2.588          125.6          24.36         -26.24           19.2          20.76
     1.482              -30.14          17.99          51.81          47.28          8.463         0.9844          126.1          29.02         -30.98          22.27          23.33
     1.513              -33.31          16.56          46.44          45.62          8.133         -0.874          126.6          34.44         -36.48          25.83          26.31
     1.543              -36.74          15.02          40.62          43.82          7.776         -2.886          127.2          40.29         -42.43          29.69          29.54
     1.574              -40.16          13.47           34.8          42.02          7.419         -4.899          127.8          46.15         -48.38          33.54          32.77
     1.605              -43.33          12.04          29.43          40.36          7.089         -6.757          128.4          51.56         -53.88           37.1          35.76
     1.636              -46.06          10.81           24.8          38.93          6.805          -8.36          128.9          56.23         -58.62          40.18          38.33
     1.667               -48.3            9.8          20.99          37.75          6.571         -9.676          129.3          60.06         -62.51           42.7          40.44
     1.698              -50.09          8.996          17.97          36.82          6.386         -10.72          129.6          63.11         -65.61           44.7          42.12
     1.729              -51.48          8.366           15.6          36.09           6.24         -11.54          129.8          65.49         -68.03          46.27          43.43
      1.76              -52.57          7.875          13.75          35.51          6.127         -12.18          130.0          67.35         -69.92           47.5          44.46
      1.79              -53.42          7.492          12.31          35.07          6.038         -12.68          130.2           68.8          -71.4          48.45          45.26
     1.821              -54.09           7.19          11.18          34.72          5.969         -13.07          130.3          69.95         -72.56           49.2          45.89
     1.852              -54.62          6.951          10.28          34.44          5.913         -13.38          130.4          70.85         -73.48           49.8          46.39
     1.883              -55.04          6.759          9.556          34.22          5.869         -13.63          130.5          71.58         -74.22          50.28          46.79
     1.914              -55.39          6.604          8.971          34.04          5.833         -13.83          130.5          72.17         -74.82          50.67          47.11
     1.945              -55.67          6.476          8.492          33.89          5.804          -14.0          130.6          72.65         -75.31          50.98          47.38
     1.976               -55.9          6.371          8.096          33.77           5.78         -14.14          130.6          73.05         -75.71          51.25           47.6
